# xmcd CD database file
#
# Track frame offsets:
#	150
#	9813
#	25072
#	36347
#	45632
#	58232
#	69179
#	81741
#	96888
#	108497
#	120389
#	134901
#	178493
#
# Disc length: 2501 seconds
#
# Revision: 0
# Processed by: cddbd v1.5.2PL0 Copyright (c) Steve Scherf et al.
# Submitted via: ACXtractor (MTCDDB.DLL V2003.12.21)
#
DISCID=b709c30d
DTITLE=George Jones and Tammy Wynette - Kenny Dolly Tammy George
DYEAR=2002
DGENRE=Country
TTITLE0=The Race is On - George Jones
TTITLE1=Till I Can Make it on my Own - Tammy Wynette
TTITLE2=Tender Years - George Jones
TTITLE3=Rocky top - Tammy Wynette
TTITLE4=She Thinks I Still Care - George Jones
TTITLE5=Womanhood - Tammy Wynette
TTITLE6=Take Me - George Jones
TTITLE7=Crying in the Rain - Tammy Wynette
TTITLE8=White Lightnin' - George Jones
TTITLE9=Stand By Your Man - Tammy Wynette
TTITLE10=A Good Year for the Roses - George Jones
TTITLE11=Apartment  9  I don't want to play House etc - Tammy Wynette
TTITLE12=Love Bug - George Jones
EXTD=ID3G:   2 YEAR: 2002
EXTT0=
EXTT1=
EXTT2=
EXTT3=
EXTT4=
EXTT5=
EXTT6=
EXTT7=
EXTT8=
EXTT9=
EXTT10=
EXTT11=
EXTT12=
PLAYORDER=
